<mxfile host="app.diagrams.net" modified="2021-03-12T07:57:54.862Z" agent="5.0 (Windows NT 10.0; Win64; x64) AppleWebKit/537.36 (KHTML, like Gecko) Chrome/89.0.4389.82 Safari/537.36" etag="eCKUjE9sRjgfjAVHhqrc" version="14.4.7" type="github">
  <diagram id="dZG7nAZriMjonaE4HEed" name="Page-1">
    <mxGraphModel dx="2031" dy="3472" grid="1" gridSize="10" guides="1" tooltips="1" connect="1" arrows="1" fold="1" page="1" pageScale="1" pageWidth="827" pageHeight="1169" math="0" shadow="0">
      <root>
        <mxCell id="0" />
        <mxCell id="1" parent="0" />
        <mxCell id="JSSmG65UOy7uF9lDPHsa-1" style="edgeStyle=orthogonalEdgeStyle;rounded=0;orthogonalLoop=1;jettySize=auto;html=1;exitX=1;exitY=0.5;exitDx=0;exitDy=0;" edge="1" parent="1" source="JSSmG65UOy7uF9lDPHsa-2">
          <mxGeometry relative="1" as="geometry">
            <mxPoint x="170" y="-1911" as="targetPoint" />
          </mxGeometry>
        </mxCell>
        <mxCell id="JSSmG65UOy7uF9lDPHsa-2" value="Client" style="rounded=0;whiteSpace=wrap;html=1;" vertex="1" parent="1">
          <mxGeometry x="30" y="-1936" width="80" height="50" as="geometry" />
        </mxCell>
        <mxCell id="JSSmG65UOy7uF9lDPHsa-3" value="ListEmployeeServlet" style="swimlane;fontStyle=0;childLayout=stackLayout;horizontal=1;startSize=26;horizontalStack=0;resizeParent=1;resizeParentMax=0;resizeLast=0;collapsible=1;marginBottom=0;align=center;fontSize=14;" vertex="1" parent="1">
          <mxGeometry x="180" y="-1936" width="160" height="46" as="geometry">
            <mxRectangle x="150" y="100" width="50" height="26" as="alternateBounds" />
          </mxGeometry>
        </mxCell>
        <mxCell id="JSSmG65UOy7uF9lDPHsa-4" value="@Webserlvet(/list.do)" style="text;html=1;align=center;verticalAlign=middle;resizable=0;points=[];autosize=1;" vertex="1" parent="JSSmG65UOy7uF9lDPHsa-3">
          <mxGeometry y="26" width="160" height="20" as="geometry" />
        </mxCell>
        <mxCell id="JSSmG65UOy7uF9lDPHsa-5" style="edgeStyle=orthogonalEdgeStyle;rounded=0;orthogonalLoop=1;jettySize=auto;html=1;exitX=0;exitY=0.25;exitDx=0;exitDy=0;" edge="1" parent="1" source="JSSmG65UOy7uF9lDPHsa-6">
          <mxGeometry relative="1" as="geometry">
            <mxPoint x="60" y="-1878.0000000000002" as="targetPoint" />
          </mxGeometry>
        </mxCell>
        <mxCell id="JSSmG65UOy7uF9lDPHsa-6" value="listEmployee.jsp" style="swimlane;fontStyle=0;childLayout=stackLayout;horizontal=1;startSize=26;horizontalStack=0;resizeParent=1;resizeParentMax=0;resizeLast=0;collapsible=1;marginBottom=0;align=center;fontSize=14;" vertex="1" parent="1">
          <mxGeometry x="184" y="-1718" width="166" height="46" as="geometry">
            <mxRectangle x="150" y="100" width="50" height="26" as="alternateBounds" />
          </mxGeometry>
        </mxCell>
        <mxCell id="JSSmG65UOy7uF9lDPHsa-7" value="회원 리스트" style="text;html=1;align=center;verticalAlign=middle;resizable=0;points=[];autosize=1;" vertex="1" parent="JSSmG65UOy7uF9lDPHsa-6">
          <mxGeometry y="26" width="166" height="20" as="geometry" />
        </mxCell>
        <mxCell id="JSSmG65UOy7uF9lDPHsa-8" value="EmployeeDAO" style="swimlane;fontStyle=0;childLayout=stackLayout;horizontal=1;startSize=26;horizontalStack=0;resizeParent=1;resizeParentMax=0;resizeLast=0;collapsible=1;marginBottom=0;align=center;fontSize=14;" vertex="1" parent="1">
          <mxGeometry x="400" y="-1936" width="200" height="46" as="geometry">
            <mxRectangle x="150" y="100" width="50" height="26" as="alternateBounds" />
          </mxGeometry>
        </mxCell>
        <mxCell id="JSSmG65UOy7uF9lDPHsa-9" value="listEmplyoee&lt;br&gt;" style="text;html=1;align=center;verticalAlign=middle;resizable=0;points=[];autosize=1;" vertex="1" parent="JSSmG65UOy7uF9lDPHsa-8">
          <mxGeometry y="26" width="200" height="20" as="geometry" />
        </mxCell>
        <mxCell id="JSSmG65UOy7uF9lDPHsa-10" value="EmployeeVO" style="swimlane;fontStyle=0;childLayout=stackLayout;horizontal=1;startSize=26;horizontalStack=0;resizeParent=1;resizeParentMax=0;resizeLast=0;collapsible=1;marginBottom=0;align=center;fontSize=14;" vertex="1" parent="1">
          <mxGeometry x="400" y="-1748" width="200" height="146" as="geometry">
            <mxRectangle x="150" y="100" width="50" height="26" as="alternateBounds" />
          </mxGeometry>
        </mxCell>
        <mxCell id="JSSmG65UOy7uF9lDPHsa-11" value="eno&lt;br&gt;ename&lt;br&gt;job&lt;br&gt;manager&lt;br&gt;hireDate&lt;br&gt;salary&lt;br&gt;commission&lt;br&gt;dno&lt;br&gt;" style="text;html=1;align=center;verticalAlign=middle;resizable=0;points=[];autosize=1;" vertex="1" parent="JSSmG65UOy7uF9lDPHsa-10">
          <mxGeometry y="26" width="200" height="120" as="geometry" />
        </mxCell>
        <mxCell id="JSSmG65UOy7uF9lDPHsa-12" value="" style="endArrow=classic;startArrow=classic;html=1;entryX=-0.01;entryY=0.1;entryDx=0;entryDy=0;entryPerimeter=0;exitX=1.006;exitY=0.15;exitDx=0;exitDy=0;exitPerimeter=0;" edge="1" parent="1" source="JSSmG65UOy7uF9lDPHsa-4" target="JSSmG65UOy7uF9lDPHsa-9">
          <mxGeometry width="50" height="50" relative="1" as="geometry">
            <mxPoint x="580" y="-1648" as="sourcePoint" />
            <mxPoint x="630" y="-1698" as="targetPoint" />
          </mxGeometry>
        </mxCell>
        <mxCell id="JSSmG65UOy7uF9lDPHsa-13" value="" style="endArrow=classic;startArrow=classic;html=1;entryX=0.49;entryY=1.2;entryDx=0;entryDy=0;entryPerimeter=0;exitX=0.5;exitY=0;exitDx=0;exitDy=0;" edge="1" parent="1" source="JSSmG65UOy7uF9lDPHsa-10" target="JSSmG65UOy7uF9lDPHsa-9">
          <mxGeometry width="50" height="50" relative="1" as="geometry">
            <mxPoint x="580" y="-1648" as="sourcePoint" />
            <mxPoint x="630" y="-1698" as="targetPoint" />
          </mxGeometry>
        </mxCell>
        <mxCell id="JSSmG65UOy7uF9lDPHsa-14" value="" style="endArrow=classic;startArrow=classic;html=1;entryX=0.5;entryY=1.1;entryDx=0;entryDy=0;entryPerimeter=0;" edge="1" parent="1" target="JSSmG65UOy7uF9lDPHsa-4">
          <mxGeometry width="50" height="50" relative="1" as="geometry">
            <mxPoint x="260" y="-1722" as="sourcePoint" />
            <mxPoint x="630" y="-1698" as="targetPoint" />
          </mxGeometry>
        </mxCell>
        <mxCell id="JSSmG65UOy7uF9lDPHsa-15" value="DB&lt;br&gt;employee" style="shape=cylinder3;whiteSpace=wrap;html=1;boundedLbl=1;backgroundOutline=1;size=15;" vertex="1" parent="1">
          <mxGeometry x="700" y="-1950" width="90" height="100" as="geometry" />
        </mxCell>
        <mxCell id="JSSmG65UOy7uF9lDPHsa-16" value="" style="endArrow=classic;startArrow=classic;html=1;entryX=0;entryY=0.5;entryDx=0;entryDy=0;entryPerimeter=0;exitX=1.01;exitY=0.4;exitDx=0;exitDy=0;exitPerimeter=0;" edge="1" parent="1" source="JSSmG65UOy7uF9lDPHsa-9" target="JSSmG65UOy7uF9lDPHsa-15">
          <mxGeometry width="50" height="50" relative="1" as="geometry">
            <mxPoint x="580" y="-1648" as="sourcePoint" />
            <mxPoint x="630" y="-1698" as="targetPoint" />
          </mxGeometry>
        </mxCell>
        <mxCell id="JSSmG65UOy7uF9lDPHsa-17" style="edgeStyle=orthogonalEdgeStyle;rounded=0;orthogonalLoop=1;jettySize=auto;html=1;exitX=1;exitY=0.5;exitDx=0;exitDy=0;" edge="1" parent="1" source="JSSmG65UOy7uF9lDPHsa-18">
          <mxGeometry relative="1" as="geometry">
            <mxPoint x="170" y="-1441" as="targetPoint" />
          </mxGeometry>
        </mxCell>
        <mxCell id="JSSmG65UOy7uF9lDPHsa-18" value="Client" style="rounded=0;whiteSpace=wrap;html=1;" vertex="1" parent="1">
          <mxGeometry x="30" y="-1466" width="80" height="50" as="geometry" />
        </mxCell>
        <mxCell id="JSSmG65UOy7uF9lDPHsa-19" value="JoinEmployeeServlet(doget)" style="swimlane;fontStyle=0;childLayout=stackLayout;horizontal=1;startSize=26;horizontalStack=0;resizeParent=1;resizeParentMax=0;resizeLast=0;collapsible=1;marginBottom=0;align=center;fontSize=14;" vertex="1" parent="1">
          <mxGeometry x="180" y="-1466" width="180" height="46" as="geometry">
            <mxRectangle x="150" y="100" width="50" height="26" as="alternateBounds" />
          </mxGeometry>
        </mxCell>
        <mxCell id="JSSmG65UOy7uF9lDPHsa-20" value="@Webserlvet(/join,do)" style="text;html=1;align=center;verticalAlign=middle;resizable=0;points=[];autosize=1;" vertex="1" parent="JSSmG65UOy7uF9lDPHsa-19">
          <mxGeometry y="26" width="180" height="20" as="geometry" />
        </mxCell>
        <mxCell id="JSSmG65UOy7uF9lDPHsa-21" style="edgeStyle=orthogonalEdgeStyle;rounded=0;orthogonalLoop=1;jettySize=auto;html=1;exitX=0;exitY=0.25;exitDx=0;exitDy=0;" edge="1" parent="1" source="JSSmG65UOy7uF9lDPHsa-22">
          <mxGeometry relative="1" as="geometry">
            <mxPoint x="60" y="-1408" as="targetPoint" />
          </mxGeometry>
        </mxCell>
        <mxCell id="JSSmG65UOy7uF9lDPHsa-22" value="joinEmployeeResult.jsp" style="swimlane;fontStyle=0;childLayout=stackLayout;horizontal=1;startSize=26;horizontalStack=0;resizeParent=1;resizeParentMax=0;resizeLast=0;collapsible=1;marginBottom=0;align=center;fontSize=14;" vertex="1" parent="1">
          <mxGeometry x="194" y="-1178" width="166" height="46" as="geometry">
            <mxRectangle x="150" y="100" width="50" height="26" as="alternateBounds" />
          </mxGeometry>
        </mxCell>
        <mxCell id="JSSmG65UOy7uF9lDPHsa-23" value="회원가입" style="text;html=1;align=center;verticalAlign=middle;resizable=0;points=[];autosize=1;" vertex="1" parent="JSSmG65UOy7uF9lDPHsa-22">
          <mxGeometry y="26" width="166" height="20" as="geometry" />
        </mxCell>
        <mxCell id="JSSmG65UOy7uF9lDPHsa-24" value="EmployeeDAO" style="swimlane;fontStyle=0;childLayout=stackLayout;horizontal=1;startSize=26;horizontalStack=0;resizeParent=1;resizeParentMax=0;resizeLast=0;collapsible=1;marginBottom=0;align=center;fontSize=14;" vertex="1" parent="1">
          <mxGeometry x="400" y="-1466" width="200" height="46" as="geometry">
            <mxRectangle x="150" y="100" width="50" height="26" as="alternateBounds" />
          </mxGeometry>
        </mxCell>
        <mxCell id="JSSmG65UOy7uF9lDPHsa-25" value="joinEmplyoee" style="text;html=1;align=center;verticalAlign=middle;resizable=0;points=[];autosize=1;" vertex="1" parent="JSSmG65UOy7uF9lDPHsa-24">
          <mxGeometry y="26" width="200" height="20" as="geometry" />
        </mxCell>
        <mxCell id="JSSmG65UOy7uF9lDPHsa-26" value="EmployeeVO" style="swimlane;fontStyle=0;childLayout=stackLayout;horizontal=1;startSize=26;horizontalStack=0;resizeParent=1;resizeParentMax=0;resizeLast=0;collapsible=1;marginBottom=0;align=center;fontSize=14;" vertex="1" parent="1">
          <mxGeometry x="400" y="-1278" width="200" height="146" as="geometry">
            <mxRectangle x="150" y="100" width="50" height="26" as="alternateBounds" />
          </mxGeometry>
        </mxCell>
        <mxCell id="JSSmG65UOy7uF9lDPHsa-27" value="eno&lt;br&gt;ename&lt;br&gt;job&lt;br&gt;manager&lt;br&gt;hireDate&lt;br&gt;salary&lt;br&gt;commission&lt;br&gt;dno&lt;br&gt;" style="text;html=1;align=center;verticalAlign=middle;resizable=0;points=[];autosize=1;" vertex="1" parent="JSSmG65UOy7uF9lDPHsa-26">
          <mxGeometry y="26" width="200" height="120" as="geometry" />
        </mxCell>
        <mxCell id="JSSmG65UOy7uF9lDPHsa-28" value="" style="endArrow=classic;startArrow=classic;html=1;entryX=0.49;entryY=1.2;entryDx=0;entryDy=0;entryPerimeter=0;exitX=0.5;exitY=0;exitDx=0;exitDy=0;" edge="1" parent="1" source="JSSmG65UOy7uF9lDPHsa-26" target="JSSmG65UOy7uF9lDPHsa-25">
          <mxGeometry width="50" height="50" relative="1" as="geometry">
            <mxPoint x="580" y="-1178" as="sourcePoint" />
            <mxPoint x="630" y="-1228" as="targetPoint" />
          </mxGeometry>
        </mxCell>
        <mxCell id="JSSmG65UOy7uF9lDPHsa-29" value="DB&lt;br&gt;employee" style="shape=cylinder3;whiteSpace=wrap;html=1;boundedLbl=1;backgroundOutline=1;size=15;" vertex="1" parent="1">
          <mxGeometry x="700" y="-1480" width="90" height="100" as="geometry" />
        </mxCell>
        <mxCell id="JSSmG65UOy7uF9lDPHsa-30" value="" style="endArrow=classic;startArrow=classic;html=1;entryX=0;entryY=0.5;entryDx=0;entryDy=0;entryPerimeter=0;exitX=1.01;exitY=0.4;exitDx=0;exitDy=0;exitPerimeter=0;" edge="1" parent="1" source="JSSmG65UOy7uF9lDPHsa-25" target="JSSmG65UOy7uF9lDPHsa-29">
          <mxGeometry width="50" height="50" relative="1" as="geometry">
            <mxPoint x="580" y="-1178" as="sourcePoint" />
            <mxPoint x="630" y="-1228" as="targetPoint" />
          </mxGeometry>
        </mxCell>
        <mxCell id="JSSmG65UOy7uF9lDPHsa-31" style="edgeStyle=orthogonalEdgeStyle;rounded=0;orthogonalLoop=1;jettySize=auto;html=1;exitX=1;exitY=0.5;exitDx=0;exitDy=0;entryX=0;entryY=0.5;entryDx=0;entryDy=0;" edge="1" parent="1" source="JSSmG65UOy7uF9lDPHsa-32" target="JSSmG65UOy7uF9lDPHsa-33">
          <mxGeometry relative="1" as="geometry">
            <mxPoint x="980" y="-1911" as="targetPoint" />
          </mxGeometry>
        </mxCell>
        <mxCell id="JSSmG65UOy7uF9lDPHsa-32" value="Client" style="rounded=0;whiteSpace=wrap;html=1;" vertex="1" parent="1">
          <mxGeometry x="840" y="-1936" width="80" height="50" as="geometry" />
        </mxCell>
        <mxCell id="JSSmG65UOy7uF9lDPHsa-33" value="UpdateEmployeeServlet(doget)" style="swimlane;fontStyle=0;childLayout=stackLayout;horizontal=1;startSize=26;horizontalStack=0;resizeParent=1;resizeParentMax=0;resizeLast=0;collapsible=1;marginBottom=0;align=center;fontSize=14;" vertex="1" parent="1">
          <mxGeometry x="970" y="-1936" width="200" height="46" as="geometry">
            <mxRectangle x="150" y="100" width="50" height="26" as="alternateBounds" />
          </mxGeometry>
        </mxCell>
        <mxCell id="JSSmG65UOy7uF9lDPHsa-34" value="@Webserlvet(/update.do)" style="text;html=1;align=center;verticalAlign=middle;resizable=0;points=[];autosize=1;" vertex="1" parent="JSSmG65UOy7uF9lDPHsa-33">
          <mxGeometry y="26" width="200" height="20" as="geometry" />
        </mxCell>
        <mxCell id="JSSmG65UOy7uF9lDPHsa-35" style="edgeStyle=orthogonalEdgeStyle;rounded=0;orthogonalLoop=1;jettySize=auto;html=1;exitX=0;exitY=0.25;exitDx=0;exitDy=0;" edge="1" parent="1" source="JSSmG65UOy7uF9lDPHsa-36">
          <mxGeometry relative="1" as="geometry">
            <mxPoint x="869.9999999999995" y="-1878.0000000000002" as="targetPoint" />
          </mxGeometry>
        </mxCell>
        <mxCell id="JSSmG65UOy7uF9lDPHsa-36" value="updateEmployee.jsp" style="swimlane;fontStyle=0;childLayout=stackLayout;horizontal=1;startSize=26;horizontalStack=0;resizeParent=1;resizeParentMax=0;resizeLast=0;collapsible=1;marginBottom=0;align=center;fontSize=14;" vertex="1" parent="1">
          <mxGeometry x="1000" y="-1648" width="166" height="46" as="geometry">
            <mxRectangle x="150" y="100" width="50" height="26" as="alternateBounds" />
          </mxGeometry>
        </mxCell>
        <mxCell id="JSSmG65UOy7uF9lDPHsa-37" value="회원정보 수정" style="text;html=1;align=center;verticalAlign=middle;resizable=0;points=[];autosize=1;" vertex="1" parent="JSSmG65UOy7uF9lDPHsa-36">
          <mxGeometry y="26" width="166" height="20" as="geometry" />
        </mxCell>
        <mxCell id="JSSmG65UOy7uF9lDPHsa-38" value="EmployeeDAO" style="swimlane;fontStyle=0;childLayout=stackLayout;horizontal=1;startSize=26;horizontalStack=0;resizeParent=1;resizeParentMax=0;resizeLast=0;collapsible=1;marginBottom=0;align=center;fontSize=14;" vertex="1" parent="1">
          <mxGeometry x="1210" y="-1936" width="200" height="46" as="geometry">
            <mxRectangle x="150" y="100" width="50" height="26" as="alternateBounds" />
          </mxGeometry>
        </mxCell>
        <mxCell id="JSSmG65UOy7uF9lDPHsa-39" value="updateEmplyoee" style="text;html=1;align=center;verticalAlign=middle;resizable=0;points=[];autosize=1;" vertex="1" parent="JSSmG65UOy7uF9lDPHsa-38">
          <mxGeometry y="26" width="200" height="20" as="geometry" />
        </mxCell>
        <mxCell id="JSSmG65UOy7uF9lDPHsa-40" value="EmployeeVO" style="swimlane;fontStyle=0;childLayout=stackLayout;horizontal=1;startSize=26;horizontalStack=0;resizeParent=1;resizeParentMax=0;resizeLast=0;collapsible=1;marginBottom=0;align=center;fontSize=14;" vertex="1" parent="1">
          <mxGeometry x="1210" y="-1748" width="200" height="146" as="geometry">
            <mxRectangle x="150" y="100" width="50" height="26" as="alternateBounds" />
          </mxGeometry>
        </mxCell>
        <mxCell id="JSSmG65UOy7uF9lDPHsa-41" value="eno&lt;br&gt;ename&lt;br&gt;job&lt;br&gt;manager&lt;br&gt;hireDate&lt;br&gt;salary&lt;br&gt;commission&lt;br&gt;dno&lt;br&gt;" style="text;html=1;align=center;verticalAlign=middle;resizable=0;points=[];autosize=1;" vertex="1" parent="JSSmG65UOy7uF9lDPHsa-40">
          <mxGeometry y="26" width="200" height="120" as="geometry" />
        </mxCell>
        <mxCell id="JSSmG65UOy7uF9lDPHsa-42" value="" style="endArrow=classic;startArrow=classic;html=1;entryX=-0.01;entryY=0.1;entryDx=0;entryDy=0;entryPerimeter=0;exitX=1.006;exitY=0.15;exitDx=0;exitDy=0;exitPerimeter=0;" edge="1" parent="1" source="JSSmG65UOy7uF9lDPHsa-34" target="JSSmG65UOy7uF9lDPHsa-39">
          <mxGeometry width="50" height="50" relative="1" as="geometry">
            <mxPoint x="1390" y="-1648" as="sourcePoint" />
            <mxPoint x="1440" y="-1698" as="targetPoint" />
          </mxGeometry>
        </mxCell>
        <mxCell id="JSSmG65UOy7uF9lDPHsa-43" value="" style="endArrow=classic;startArrow=classic;html=1;entryX=0.49;entryY=1.2;entryDx=0;entryDy=0;entryPerimeter=0;exitX=0.5;exitY=0;exitDx=0;exitDy=0;" edge="1" parent="1" source="JSSmG65UOy7uF9lDPHsa-40" target="JSSmG65UOy7uF9lDPHsa-39">
          <mxGeometry width="50" height="50" relative="1" as="geometry">
            <mxPoint x="1390" y="-1648" as="sourcePoint" />
            <mxPoint x="1440" y="-1698" as="targetPoint" />
          </mxGeometry>
        </mxCell>
        <mxCell id="JSSmG65UOy7uF9lDPHsa-44" value="DB&lt;br&gt;employee" style="shape=cylinder3;whiteSpace=wrap;html=1;boundedLbl=1;backgroundOutline=1;size=15;" vertex="1" parent="1">
          <mxGeometry x="1510" y="-1950" width="90" height="100" as="geometry" />
        </mxCell>
        <mxCell id="JSSmG65UOy7uF9lDPHsa-45" value="" style="endArrow=classic;startArrow=classic;html=1;entryX=0;entryY=0.5;entryDx=0;entryDy=0;entryPerimeter=0;exitX=1.01;exitY=0.4;exitDx=0;exitDy=0;exitPerimeter=0;" edge="1" parent="1" source="JSSmG65UOy7uF9lDPHsa-39" target="JSSmG65UOy7uF9lDPHsa-44">
          <mxGeometry width="50" height="50" relative="1" as="geometry">
            <mxPoint x="1390" y="-1648" as="sourcePoint" />
            <mxPoint x="1440" y="-1698" as="targetPoint" />
          </mxGeometry>
        </mxCell>
        <mxCell id="JSSmG65UOy7uF9lDPHsa-46" style="edgeStyle=orthogonalEdgeStyle;rounded=0;orthogonalLoop=1;jettySize=auto;html=1;exitX=1;exitY=0.5;exitDx=0;exitDy=0;" edge="1" parent="1" source="JSSmG65UOy7uF9lDPHsa-47">
          <mxGeometry relative="1" as="geometry">
            <mxPoint x="989.9999999999995" y="-1441.0000000000002" as="targetPoint" />
          </mxGeometry>
        </mxCell>
        <mxCell id="JSSmG65UOy7uF9lDPHsa-47" value="Client" style="rounded=0;whiteSpace=wrap;html=1;" vertex="1" parent="1">
          <mxGeometry x="850" y="-1466" width="80" height="50" as="geometry" />
        </mxCell>
        <mxCell id="JSSmG65UOy7uF9lDPHsa-48" value="DeleteEmployeeServlet(doget)" style="swimlane;fontStyle=0;childLayout=stackLayout;horizontal=1;startSize=26;horizontalStack=0;resizeParent=1;resizeParentMax=0;resizeLast=0;collapsible=1;marginBottom=0;align=center;fontSize=14;" vertex="1" parent="1">
          <mxGeometry x="1000" y="-1466" width="190" height="46" as="geometry">
            <mxRectangle x="150" y="100" width="50" height="26" as="alternateBounds" />
          </mxGeometry>
        </mxCell>
        <mxCell id="JSSmG65UOy7uF9lDPHsa-49" value="@Webserlvet(/delete.do)" style="text;html=1;align=center;verticalAlign=middle;resizable=0;points=[];autosize=1;" vertex="1" parent="JSSmG65UOy7uF9lDPHsa-48">
          <mxGeometry y="26" width="190" height="20" as="geometry" />
        </mxCell>
        <mxCell id="JSSmG65UOy7uF9lDPHsa-50" style="edgeStyle=orthogonalEdgeStyle;rounded=0;orthogonalLoop=1;jettySize=auto;html=1;exitX=0;exitY=0.25;exitDx=0;exitDy=0;" edge="1" parent="1" source="JSSmG65UOy7uF9lDPHsa-51">
          <mxGeometry relative="1" as="geometry">
            <mxPoint x="879.9999999999995" y="-1408" as="targetPoint" />
          </mxGeometry>
        </mxCell>
        <mxCell id="JSSmG65UOy7uF9lDPHsa-51" value="deleteEmployeeResult.jsp" style="swimlane;fontStyle=0;childLayout=stackLayout;horizontal=1;startSize=26;horizontalStack=0;resizeParent=1;resizeParentMax=0;resizeLast=0;collapsible=1;marginBottom=0;align=center;fontSize=14;" vertex="1" parent="1">
          <mxGeometry x="1030" y="-1178" width="166" height="46" as="geometry">
            <mxRectangle x="150" y="100" width="50" height="26" as="alternateBounds" />
          </mxGeometry>
        </mxCell>
        <mxCell id="JSSmG65UOy7uF9lDPHsa-52" value="회원정보 삭제" style="text;html=1;align=center;verticalAlign=middle;resizable=0;points=[];autosize=1;" vertex="1" parent="JSSmG65UOy7uF9lDPHsa-51">
          <mxGeometry y="26" width="166" height="20" as="geometry" />
        </mxCell>
        <mxCell id="JSSmG65UOy7uF9lDPHsa-53" value="EmployeeDAO" style="swimlane;fontStyle=0;childLayout=stackLayout;horizontal=1;startSize=26;horizontalStack=0;resizeParent=1;resizeParentMax=0;resizeLast=0;collapsible=1;marginBottom=0;align=center;fontSize=14;" vertex="1" parent="1">
          <mxGeometry x="1220" y="-1466" width="200" height="46" as="geometry">
            <mxRectangle x="150" y="100" width="50" height="26" as="alternateBounds" />
          </mxGeometry>
        </mxCell>
        <mxCell id="JSSmG65UOy7uF9lDPHsa-54" value="deleteEmplyoee" style="text;html=1;align=center;verticalAlign=middle;resizable=0;points=[];autosize=1;" vertex="1" parent="JSSmG65UOy7uF9lDPHsa-53">
          <mxGeometry y="26" width="200" height="20" as="geometry" />
        </mxCell>
        <mxCell id="JSSmG65UOy7uF9lDPHsa-55" value="EmployeeVO" style="swimlane;fontStyle=0;childLayout=stackLayout;horizontal=1;startSize=26;horizontalStack=0;resizeParent=1;resizeParentMax=0;resizeLast=0;collapsible=1;marginBottom=0;align=center;fontSize=14;" vertex="1" parent="1">
          <mxGeometry x="1220" y="-1278" width="200" height="146" as="geometry">
            <mxRectangle x="150" y="100" width="50" height="26" as="alternateBounds" />
          </mxGeometry>
        </mxCell>
        <mxCell id="JSSmG65UOy7uF9lDPHsa-56" value="eno&lt;br&gt;ename&lt;br&gt;job&lt;br&gt;manager&lt;br&gt;hireDate&lt;br&gt;salary&lt;br&gt;commission&lt;br&gt;dno&lt;br&gt;" style="text;html=1;align=center;verticalAlign=middle;resizable=0;points=[];autosize=1;" vertex="1" parent="JSSmG65UOy7uF9lDPHsa-55">
          <mxGeometry y="26" width="200" height="120" as="geometry" />
        </mxCell>
        <mxCell id="JSSmG65UOy7uF9lDPHsa-57" value="" style="endArrow=classic;startArrow=classic;html=1;entryX=0.49;entryY=1.2;entryDx=0;entryDy=0;entryPerimeter=0;exitX=0.5;exitY=0;exitDx=0;exitDy=0;" edge="1" parent="1" source="JSSmG65UOy7uF9lDPHsa-55" target="JSSmG65UOy7uF9lDPHsa-54">
          <mxGeometry width="50" height="50" relative="1" as="geometry">
            <mxPoint x="1400" y="-1178" as="sourcePoint" />
            <mxPoint x="1450" y="-1228" as="targetPoint" />
          </mxGeometry>
        </mxCell>
        <mxCell id="JSSmG65UOy7uF9lDPHsa-58" value="DB&lt;br&gt;employee" style="shape=cylinder3;whiteSpace=wrap;html=1;boundedLbl=1;backgroundOutline=1;size=15;" vertex="1" parent="1">
          <mxGeometry x="1520" y="-1480" width="90" height="100" as="geometry" />
        </mxCell>
        <mxCell id="JSSmG65UOy7uF9lDPHsa-59" value="" style="endArrow=classic;startArrow=classic;html=1;entryX=0;entryY=0.5;entryDx=0;entryDy=0;entryPerimeter=0;exitX=1.01;exitY=0.4;exitDx=0;exitDy=0;exitPerimeter=0;" edge="1" parent="1" source="JSSmG65UOy7uF9lDPHsa-54" target="JSSmG65UOy7uF9lDPHsa-58">
          <mxGeometry width="50" height="50" relative="1" as="geometry">
            <mxPoint x="1400" y="-1178" as="sourcePoint" />
            <mxPoint x="1450" y="-1228" as="targetPoint" />
          </mxGeometry>
        </mxCell>
        <mxCell id="JSSmG65UOy7uF9lDPHsa-60" value="UpdateEmployeeServlet(dopost)" style="swimlane;fontStyle=0;childLayout=stackLayout;horizontal=1;startSize=26;horizontalStack=0;resizeParent=1;resizeParentMax=0;resizeLast=0;collapsible=1;marginBottom=0;align=center;fontSize=14;" vertex="1" parent="1">
          <mxGeometry x="970" y="-1738" width="200" height="46" as="geometry">
            <mxRectangle x="150" y="100" width="50" height="26" as="alternateBounds" />
          </mxGeometry>
        </mxCell>
        <mxCell id="JSSmG65UOy7uF9lDPHsa-61" value="@Webserlvet(/update.do)" style="text;html=1;align=center;verticalAlign=middle;resizable=0;points=[];autosize=1;" vertex="1" parent="JSSmG65UOy7uF9lDPHsa-60">
          <mxGeometry y="26" width="200" height="20" as="geometry" />
        </mxCell>
        <mxCell id="JSSmG65UOy7uF9lDPHsa-62" value="" style="endArrow=classic;startArrow=classic;html=1;entryX=0.203;entryY=1.253;entryDx=0;entryDy=0;entryPerimeter=0;exitX=1;exitY=0.75;exitDx=0;exitDy=0;" edge="1" parent="1" source="JSSmG65UOy7uF9lDPHsa-60" target="JSSmG65UOy7uF9lDPHsa-39">
          <mxGeometry width="50" height="50" relative="1" as="geometry">
            <mxPoint x="840" y="-1570" as="sourcePoint" />
            <mxPoint x="890" y="-1620" as="targetPoint" />
          </mxGeometry>
        </mxCell>
        <mxCell id="JSSmG65UOy7uF9lDPHsa-63" value="JoinEmployeeServlet(dopost)" style="swimlane;fontStyle=0;childLayout=stackLayout;horizontal=1;startSize=26;horizontalStack=0;resizeParent=1;resizeParentMax=0;resizeLast=0;collapsible=1;marginBottom=0;align=center;fontSize=14;" vertex="1" parent="1">
          <mxGeometry x="180" y="-1270" width="180" height="46" as="geometry">
            <mxRectangle x="150" y="100" width="50" height="26" as="alternateBounds" />
          </mxGeometry>
        </mxCell>
        <mxCell id="JSSmG65UOy7uF9lDPHsa-64" value="@Webserlvet(/join,do)" style="text;html=1;align=center;verticalAlign=middle;resizable=0;points=[];autosize=1;" vertex="1" parent="JSSmG65UOy7uF9lDPHsa-63">
          <mxGeometry y="26" width="180" height="20" as="geometry" />
        </mxCell>
        <mxCell id="JSSmG65UOy7uF9lDPHsa-65" value="DeleteEmployeeServlet(dopost)" style="swimlane;fontStyle=0;childLayout=stackLayout;horizontal=1;startSize=26;horizontalStack=0;resizeParent=1;resizeParentMax=0;resizeLast=0;collapsible=1;marginBottom=0;align=center;fontSize=14;" vertex="1" parent="1">
          <mxGeometry x="990" y="-1270" width="200" height="46" as="geometry">
            <mxRectangle x="150" y="100" width="50" height="26" as="alternateBounds" />
          </mxGeometry>
        </mxCell>
        <mxCell id="JSSmG65UOy7uF9lDPHsa-66" value="@Webserlvet(/delete.do)" style="text;html=1;align=center;verticalAlign=middle;resizable=0;points=[];autosize=1;" vertex="1" parent="JSSmG65UOy7uF9lDPHsa-65">
          <mxGeometry y="26" width="200" height="20" as="geometry" />
        </mxCell>
        <mxCell id="JSSmG65UOy7uF9lDPHsa-67" value="" style="endArrow=classic;startArrow=classic;html=1;entryX=0.211;entryY=1.106;entryDx=0;entryDy=0;entryPerimeter=0;exitX=1.019;exitY=0.041;exitDx=0;exitDy=0;exitPerimeter=0;" edge="1" parent="1" source="JSSmG65UOy7uF9lDPHsa-64" target="JSSmG65UOy7uF9lDPHsa-25">
          <mxGeometry width="50" height="50" relative="1" as="geometry">
            <mxPoint x="840" y="-1490" as="sourcePoint" />
            <mxPoint x="890" y="-1540" as="targetPoint" />
          </mxGeometry>
        </mxCell>
        <mxCell id="JSSmG65UOy7uF9lDPHsa-68" value="" style="endArrow=classic;startArrow=classic;html=1;entryX=0.229;entryY=1.224;entryDx=0;entryDy=0;entryPerimeter=0;exitX=1;exitY=0.5;exitDx=0;exitDy=0;" edge="1" parent="1" source="JSSmG65UOy7uF9lDPHsa-65" target="JSSmG65UOy7uF9lDPHsa-54">
          <mxGeometry width="50" height="50" relative="1" as="geometry">
            <mxPoint x="840" y="-1490" as="sourcePoint" />
            <mxPoint x="890" y="-1540" as="targetPoint" />
          </mxGeometry>
        </mxCell>
        <mxCell id="JSSmG65UOy7uF9lDPHsa-69" value="List" style="ellipse;whiteSpace=wrap;html=1;" vertex="1" parent="1">
          <mxGeometry x="30" y="-2030" width="120" height="80" as="geometry" />
        </mxCell>
        <mxCell id="JSSmG65UOy7uF9lDPHsa-70" value="Update" style="ellipse;whiteSpace=wrap;html=1;" vertex="1" parent="1">
          <mxGeometry x="840" y="-2030" width="120" height="80" as="geometry" />
        </mxCell>
        <mxCell id="JSSmG65UOy7uF9lDPHsa-71" value="Join" style="ellipse;whiteSpace=wrap;html=1;" vertex="1" parent="1">
          <mxGeometry x="30" y="-1560" width="120" height="80" as="geometry" />
        </mxCell>
        <mxCell id="JSSmG65UOy7uF9lDPHsa-72" value="Delete" style="ellipse;whiteSpace=wrap;html=1;" vertex="1" parent="1">
          <mxGeometry x="850" y="-1570" width="120" height="80" as="geometry" />
        </mxCell>
        <mxCell id="JSSmG65UOy7uF9lDPHsa-73" value="joinEmployee.jsp" style="swimlane;fontStyle=0;childLayout=stackLayout;horizontal=1;startSize=26;horizontalStack=0;resizeParent=1;resizeParentMax=0;resizeLast=0;collapsible=1;marginBottom=0;align=center;fontSize=14;" vertex="1" parent="1">
          <mxGeometry x="194" y="-1370" width="166" height="46" as="geometry">
            <mxRectangle x="150" y="100" width="50" height="26" as="alternateBounds" />
          </mxGeometry>
        </mxCell>
        <mxCell id="JSSmG65UOy7uF9lDPHsa-74" value="회원가입" style="text;html=1;align=center;verticalAlign=middle;resizable=0;points=[];autosize=1;" vertex="1" parent="JSSmG65UOy7uF9lDPHsa-73">
          <mxGeometry y="26" width="166" height="20" as="geometry" />
        </mxCell>
        <mxCell id="JSSmG65UOy7uF9lDPHsa-75" value="" style="endArrow=classic;html=1;entryX=0.75;entryY=1;entryDx=0;entryDy=0;exitX=-0.007;exitY=-0.224;exitDx=0;exitDy=0;exitPerimeter=0;" edge="1" parent="1" source="JSSmG65UOy7uF9lDPHsa-74" target="JSSmG65UOy7uF9lDPHsa-18">
          <mxGeometry width="50" height="50" relative="1" as="geometry">
            <mxPoint x="760" y="-1320" as="sourcePoint" />
            <mxPoint x="810" y="-1370" as="targetPoint" />
          </mxGeometry>
        </mxCell>
        <mxCell id="JSSmG65UOy7uF9lDPHsa-76" value="deleteEmployee.jsp" style="swimlane;fontStyle=0;childLayout=stackLayout;horizontal=1;startSize=26;horizontalStack=0;resizeParent=1;resizeParentMax=0;resizeLast=0;collapsible=1;marginBottom=0;align=center;fontSize=14;" vertex="1" parent="1">
          <mxGeometry x="1024" y="-1380" width="166" height="46" as="geometry">
            <mxRectangle x="150" y="100" width="50" height="26" as="alternateBounds" />
          </mxGeometry>
        </mxCell>
        <mxCell id="JSSmG65UOy7uF9lDPHsa-77" value="회원정보 삭제" style="text;html=1;align=center;verticalAlign=middle;resizable=0;points=[];autosize=1;" vertex="1" parent="JSSmG65UOy7uF9lDPHsa-76">
          <mxGeometry y="26" width="166" height="20" as="geometry" />
        </mxCell>
        <mxCell id="JSSmG65UOy7uF9lDPHsa-78" value="updateEmployee.jsp" style="swimlane;fontStyle=0;childLayout=stackLayout;horizontal=1;startSize=26;horizontalStack=0;resizeParent=1;resizeParentMax=0;resizeLast=0;collapsible=1;marginBottom=0;align=center;fontSize=14;" vertex="1" parent="1">
          <mxGeometry x="1004" y="-1840" width="166" height="46" as="geometry">
            <mxRectangle x="150" y="100" width="50" height="26" as="alternateBounds" />
          </mxGeometry>
        </mxCell>
        <mxCell id="JSSmG65UOy7uF9lDPHsa-79" value="회원정보 수정" style="text;html=1;align=center;verticalAlign=middle;resizable=0;points=[];autosize=1;" vertex="1" parent="JSSmG65UOy7uF9lDPHsa-78">
          <mxGeometry y="26" width="166" height="20" as="geometry" />
        </mxCell>
        <mxCell id="JSSmG65UOy7uF9lDPHsa-80" value="" style="endArrow=classic;html=1;entryX=1;entryY=1;entryDx=0;entryDy=0;" edge="1" parent="1" target="JSSmG65UOy7uF9lDPHsa-32">
          <mxGeometry width="50" height="50" relative="1" as="geometry">
            <mxPoint x="999.9999999999995" y="-1820" as="sourcePoint" />
            <mxPoint x="810" y="-1610" as="targetPoint" />
          </mxGeometry>
        </mxCell>
        <mxCell id="JSSmG65UOy7uF9lDPHsa-81" value="" style="endArrow=classic;html=1;entryX=1;entryY=1;entryDx=0;entryDy=0;exitX=0;exitY=0.25;exitDx=0;exitDy=0;" edge="1" parent="1" source="JSSmG65UOy7uF9lDPHsa-76" target="JSSmG65UOy7uF9lDPHsa-47">
          <mxGeometry width="50" height="50" relative="1" as="geometry">
            <mxPoint x="760" y="-1560" as="sourcePoint" />
            <mxPoint x="810" y="-1610" as="targetPoint" />
          </mxGeometry>
        </mxCell>
        <mxCell id="JSSmG65UOy7uF9lDPHsa-82" value="" style="endArrow=classic;startArrow=classic;html=1;entryX=0.041;entryY=1.224;entryDx=0;entryDy=0;entryPerimeter=0;exitX=1;exitY=0.5;exitDx=0;exitDy=0;" edge="1" parent="1" source="JSSmG65UOy7uF9lDPHsa-76" target="JSSmG65UOy7uF9lDPHsa-54">
          <mxGeometry width="50" height="50" relative="1" as="geometry">
            <mxPoint x="760" y="-1560" as="sourcePoint" />
            <mxPoint x="810" y="-1610" as="targetPoint" />
          </mxGeometry>
        </mxCell>
        <mxCell id="JSSmG65UOy7uF9lDPHsa-83" value="" style="endArrow=classic;html=1;entryX=0.5;entryY=0;entryDx=0;entryDy=0;exitX=0.542;exitY=1.047;exitDx=0;exitDy=0;exitPerimeter=0;" edge="1" parent="1" source="JSSmG65UOy7uF9lDPHsa-20" target="JSSmG65UOy7uF9lDPHsa-73">
          <mxGeometry width="50" height="50" relative="1" as="geometry">
            <mxPoint x="760" y="-1560" as="sourcePoint" />
            <mxPoint x="810" y="-1610" as="targetPoint" />
          </mxGeometry>
        </mxCell>
        <mxCell id="JSSmG65UOy7uF9lDPHsa-84" value="" style="endArrow=classic;html=1;exitX=0.5;exitY=1;exitDx=0;exitDy=0;entryX=-0.02;entryY=-0.106;entryDx=0;entryDy=0;entryPerimeter=0;" edge="1" parent="1" source="JSSmG65UOy7uF9lDPHsa-18" target="JSSmG65UOy7uF9lDPHsa-64">
          <mxGeometry width="50" height="50" relative="1" as="geometry">
            <mxPoint x="760" y="-1560" as="sourcePoint" />
            <mxPoint x="810" y="-1610" as="targetPoint" />
          </mxGeometry>
        </mxCell>
        <mxCell id="JSSmG65UOy7uF9lDPHsa-85" value="" style="endArrow=classic;html=1;entryX=-0.009;entryY=0.012;entryDx=0;entryDy=0;entryPerimeter=0;exitX=0.61;exitY=0.986;exitDx=0;exitDy=0;exitPerimeter=0;" edge="1" parent="1" source="JSSmG65UOy7uF9lDPHsa-47" target="JSSmG65UOy7uF9lDPHsa-66">
          <mxGeometry width="50" height="50" relative="1" as="geometry">
            <mxPoint x="760" y="-1560" as="sourcePoint" />
            <mxPoint x="810" y="-1610" as="targetPoint" />
          </mxGeometry>
        </mxCell>
        <mxCell id="JSSmG65UOy7uF9lDPHsa-86" value="" style="endArrow=classic;html=1;entryX=0;entryY=0.5;entryDx=0;entryDy=0;exitX=0.5;exitY=1;exitDx=0;exitDy=0;" edge="1" parent="1" source="JSSmG65UOy7uF9lDPHsa-32" target="JSSmG65UOy7uF9lDPHsa-60">
          <mxGeometry width="50" height="50" relative="1" as="geometry">
            <mxPoint x="760" y="-1560" as="sourcePoint" />
            <mxPoint x="810" y="-1610" as="targetPoint" />
          </mxGeometry>
        </mxCell>
        <mxCell id="JSSmG65UOy7uF9lDPHsa-87" value="" style="endArrow=classic;html=1;entryX=0.5;entryY=0;entryDx=0;entryDy=0;exitX=0.62;exitY=1.129;exitDx=0;exitDy=0;exitPerimeter=0;" edge="1" parent="1" source="JSSmG65UOy7uF9lDPHsa-66" target="JSSmG65UOy7uF9lDPHsa-51">
          <mxGeometry width="50" height="50" relative="1" as="geometry">
            <mxPoint x="760" y="-1440" as="sourcePoint" />
            <mxPoint x="810" y="-1490" as="targetPoint" />
          </mxGeometry>
        </mxCell>
        <mxCell id="JSSmG65UOy7uF9lDPHsa-88" value="" style="endArrow=classic;html=1;entryX=0.5;entryY=0;entryDx=0;entryDy=0;" edge="1" parent="1" target="JSSmG65UOy7uF9lDPHsa-22">
          <mxGeometry width="50" height="50" relative="1" as="geometry">
            <mxPoint x="277" y="-1220" as="sourcePoint" />
            <mxPoint x="810" y="-1490" as="targetPoint" />
          </mxGeometry>
        </mxCell>
        <mxCell id="JSSmG65UOy7uF9lDPHsa-89" value="" style="endArrow=classic;html=1;entryX=0.5;entryY=0;entryDx=0;entryDy=0;exitX=0.565;exitY=1.1;exitDx=0;exitDy=0;exitPerimeter=0;" edge="1" parent="1" source="JSSmG65UOy7uF9lDPHsa-61" target="JSSmG65UOy7uF9lDPHsa-36">
          <mxGeometry width="50" height="50" relative="1" as="geometry">
            <mxPoint x="760" y="-1440" as="sourcePoint" />
            <mxPoint x="810" y="-1490" as="targetPoint" />
          </mxGeometry>
        </mxCell>
        <mxCell id="JSSmG65UOy7uF9lDPHsa-90" value="" style="endArrow=classic;html=1;entryX=0.5;entryY=0;entryDx=0;entryDy=0;exitX=0.585;exitY=1.194;exitDx=0;exitDy=0;exitPerimeter=0;" edge="1" parent="1" source="JSSmG65UOy7uF9lDPHsa-34" target="JSSmG65UOy7uF9lDPHsa-78">
          <mxGeometry width="50" height="50" relative="1" as="geometry">
            <mxPoint x="760" y="-1560" as="sourcePoint" />
            <mxPoint x="810" y="-1610" as="targetPoint" />
          </mxGeometry>
        </mxCell>
        <mxCell id="JSSmG65UOy7uF9lDPHsa-91" value="" style="endArrow=classic;html=1;entryX=0.5;entryY=0;entryDx=0;entryDy=0;exitX=0.551;exitY=1.224;exitDx=0;exitDy=0;exitPerimeter=0;" edge="1" parent="1" source="JSSmG65UOy7uF9lDPHsa-49" target="JSSmG65UOy7uF9lDPHsa-76">
          <mxGeometry width="50" height="50" relative="1" as="geometry">
            <mxPoint x="760" y="-1560" as="sourcePoint" />
            <mxPoint x="810" y="-1610" as="targetPoint" />
          </mxGeometry>
        </mxCell>
      </root>
    </mxGraphModel>
  </diagram>
</mxfile>
